<svg xmlns="http://www.w3.org/2000/svg" version="1.1" xmlns:xlink="http://www.w3.org/1999/xlink" xmlns:svgjs="http://svgjs.dev/svgjs" width="2000" height="1247" viewBox="0 0 2000 1247"><g transform="matrix(1,0,0,1,-1.2121212121212466,0.504858299595071)"><svg viewBox="0 0 396 247" data-background-color="#f9f7f4" preserveAspectRatio="xMidYMid meet" height="1247" width="2000" xmlns="http://www.w3.org/2000/svg" xmlns:xlink="http://www.w3.org/1999/xlink"><g id="tight-bounds" transform="matrix(1,0,0,1,0.2400000000000091,-0.09999999999999432)"><svg viewBox="0 0 395.52 247.2" height="247.2" width="395.52"><g><svg></svg></g><g><svg viewBox="0 0 395.52 247.2" height="247.2" width="395.52"><g><path d="M55.039 247.2l33.671-58.32h6.358l-30.318 52.512h266.02l-30.318-52.512 6.358 0 33.671 58.32zM197.76 0l33.671 58.32-6.358 0-27.313-47.308-27.313 47.308-6.358 0z" fill="#ff5a00" fill-rule="nonzero" stroke="none" stroke-width="1" stroke-linecap="butt" stroke-linejoin="miter" stroke-miterlimit="10" stroke-dasharray="" stroke-dashoffset="0" font-family="none" font-weight="none" font-size="none" text-anchor="none" style="mix-blend-mode: normal" data-fill-palette-color="tertiary"></path></g><g transform="matrix(1,0,0,1,0,76.97132922854038)"><svg viewBox="0 0 395.52 93.25734154291922" height="93.25734154291922" width="395.52"><g><svg viewBox="0 0 395.52 93.25734154291922" height="93.25734154291922" width="395.52"><g><svg viewBox="0 0 395.52 93.25734154291922" height="93.25734154291922" width="395.52"><g><svg viewBox="0 0 395.52 93.25734154291922" height="93.25734154291922" width="395.52"><g id="textblocktransform"><svg viewBox="0 0 395.52 93.25734154291922" height="93.25734154291922" width="395.52" id="textblock"><g><svg viewBox="0 0 395.52 93.25734154291922" height="93.25734154291922" width="395.52"><g transform="matrix(1,0,0,1,0,0)"><svg width="395.52" viewBox="2.2 -32.05 138.04000000000002 32.55" height="93.25734154291922" data-palette-color="#ff5a00"><path d="M18.65-15L24.2 0 14.75 0 11-11.7 10.5-11.7 10.5 0 2.2 0 2.2-31.05 10.5-31.05 10.5-18.05 11-18.05 15.5-31.05 24.7-31.05 18.65-15ZM25.35-12.08Q25.35-18.65 27.87-21.6 30.4-24.55 35.77-24.55 41.15-24.55 43.6-21.65 46.05-18.75 46.05-12.13 46.05-5.5 43.65-2.5 41.25 0.5 35.8 0.5 30.35 0.5 27.85-2.5 25.35-5.5 25.35-12.08ZM37.37-16.8Q37.05-17.8 35.75-17.8 34.45-17.8 34.1-16.8 33.75-15.8 33.75-12.6L33.75-12.6 33.75-11.4Q33.75-7.85 34.1-6.8 34.45-5.75 35.72-5.75 37-5.75 37.35-6.8 37.7-7.85 37.7-11.1L37.7-11.1 37.7-12.55Q37.7-15.8 37.37-16.8ZM48.65-5.5L48.65-5.5 48.65-32.05 56.9-32.05 56.9-8.15Q56.9-7.3 57.27-6.95 57.65-6.6 58.6-6.6L58.6-6.6 57.95 0.5 55.2 0.5Q51.9 0.5 50.27-0.88 48.65-2.25 48.65-5.5ZM70.29-17.4L70.29-17.4Q68.99-17.4 68.59-16.53 68.19-15.65 68.19-13.85L68.19-13.85 72.54-13.85 72.54-15.05Q72.54-17.4 70.29-17.4ZM70.49-24.55L70.49-24.55Q75.64-24.55 77.87-22.08 80.09-19.6 80.09-15L80.09-15Q80.09-14.4 79.74-9.6L79.74-9.6 68.34-9.6Q68.34-5.85 71.79-5.85L71.79-5.85Q73.44-5.85 78.24-7L78.24-7 78.94-0.8Q74.74 0.5 70.54 0.5L70.54 0.5Q65.39 0.5 62.64-2.88 59.89-6.25 59.89-12.05L59.89-12.05Q59.89-24.55 70.49-24.55ZM98.19-12L103.04 0 93.79 0 90.74-9.2 90.54-9.2 90.54 0 82.39 0 82.39-32.05 90.64-32.05 90.64-14.4 90.84-14.4 94.49-23.95 103.24-23.95 98.19-12ZM118.24-6.6L117.99 0.05Q114.29 0.5 111.56 0.5 108.84 0.5 107.31-0.93 105.79-2.35 105.79-5.85L105.79-5.85 105.79-17.45 103.39-17.45 103.39-23.65 106.19-23.65 106.64-28.25 114.19-28.25 114.19-23.65 118.64-23.65 118.29-17.45 114.14-17.45 114.14-7.5Q114.14-6.45 115.14-6.45L115.14-6.45Q115.24-6.45 118.24-6.6L118.24-6.6ZM138.39-17.7L138.39-17.7 138.14-7.35Q138.14-6.4 138.61-6.08 139.09-5.75 140.24-5.75L140.24-5.75 139.49 0.3Q136.59 0.5 136.28 0.5L136.28 0.5Q132.59 0.5 131.59-2.05L131.59-2.05 131.34-2.05Q129.49 0.5 125.64 0.5L125.64 0.5Q122.69 0.5 121.11-1.4 119.54-3.3 119.54-6.6L119.54-6.6Q119.54-10.75 122.11-12.35 124.69-13.95 130.24-14.45L130.24-14.45 130.24-15.65Q130.24-17.05 128.84-17.05L128.84-17.05Q126.44-17.05 121.34-15.6L121.34-15.6 120.09-22.9Q126.49-24.55 130.74-24.55 134.99-24.55 136.69-22.9 138.39-21.25 138.39-17.7ZM128.74-5.35L128.74-5.35Q130.59-5.35 130.59-7.3L130.59-7.3 130.59-9.75Q128.74-9.5 127.96-8.97 127.19-8.45 127.19-7.2L127.19-7.2Q127.19-5.35 128.74-5.35Z" opacity="1" transform="matrix(1,0,0,1,0,0)" fill="#ff5a00" class="wordmark-text-0" data-fill-palette-color="primary" id="text-0"></path></svg></g></svg></g></svg></g></svg></g></svg></g></svg></g></svg></g></svg></g><defs></defs></svg><rect width="395.52" height="247.2" fill="none" stroke="none" visibility="hidden"></rect></g></svg></g></svg>